<svg xmlns="http://www.w3.org/2000/svg" xmlns:xlink="http://www.w3.org/1999/xlink" viewBox="0 0 294 294"><defs><style>.cls-1{fill:url(#linear-gradient);}.cls-2{fill:#fff;}.cls-3{fill:#f07f21;}</style><linearGradient id="linear-gradient" y1="147" x2="294" y2="147" gradientUnits="userSpaceOnUse"><stop offset="0" stop-color="#193a53"/><stop offset="1" stop-color="#356a81"/></linearGradient></defs><title>96C</title><g id="Layer_2" data-name="Layer 2"><g id="Layer_1-2" data-name="Layer 1"><rect class="cls-1" width="294" height="294" rx="147"/><path class="cls-2" d="M263.56,154c0-.24,0-.49,0-.73L234.83,152l27.83-1.26a6.17,6.17,0,0,0-1.85-2l-44.43-1.16,36.73-.95a4.07,4.07,0,0,0-2.8-1.12l-18.68-2.07-8.52-15.2a11.41,11.41,0,0,0-4.39-4.38l-19.4-1.46H188.86v64.16h10.51a3.86,3.86,0,0,0,2.91-1.33,3.79,3.79,0,0,0,.77-1.44,3.91,3.91,0,0,0,.11-1.63,18.73,18.73,0,0,1-.14-5,19.22,19.22,0,0,1,25.86-16.06,19.22,19.22,0,0,1,12.51,18,18.9,18.9,0,0,1-.24,3,3.9,3.9,0,0,0,.11,1.63,3.82,3.82,0,0,0,.78,1.44,3.71,3.71,0,0,0,1.31,1,3.64,3.64,0,0,0,1.59.34h12.14a6.41,6.41,0,0,0,2.48-.49,6.5,6.5,0,0,0,3.51-3.5,6.41,6.41,0,0,0,.49-2.48v-.2l-16.22-.74,16.22-.72Zm-69.74-11V126.1h18.31a5.92,5.92,0,0,1,3.05.77,6.06,6.06,0,0,1,2.25,2.19l7.8,13.9Z"/><path class="cls-2" d="M222.14,164a15,15,0,1,0,5.79,1.14A14.94,14.94,0,0,0,222.14,164Zm0,22.53a7.44,7.44,0,1,1,5.26-2.18A7.43,7.43,0,0,1,222.14,186.57Z"/><path class="cls-3" d="M178.62,136.2a24.46,24.46,0,0,0-24.46-24.49H30.43A21.53,21.53,0,0,0,52,133.24h91.94a6.9,6.9,0,0,1,4.16,1.44,6.78,6.78,0,0,1,2.44,3.67H52.2A21.54,21.54,0,0,0,73.75,159.9H151a6.89,6.89,0,0,1,6.65,5.09H74a21.54,21.54,0,0,0,21.55,21.55h83.05Z"/><path class="cls-2" d="M185.8,186.56h-3.92V118.48A14.87,14.87,0,0,0,167,103.61H165.7V99.73H167a18.76,18.76,0,0,1,18.76,18.75Z"/><path class="cls-2" d="M212.15,121.45l-12.84,1H188.86V116h9.29A20.6,20.6,0,0,1,212.15,121.45Z"/></g></g></svg>